<svg id="Layer_1" data-name="Layer 1" xmlns="http://www.w3.org/2000/svg" viewBox="0 0 83.25 65.55"><defs><style>.cls-1{fill:#212121;}</style></defs><path class="cls-1" d="M28.58,38.65c5.55,1.55,16.1,7.1,19.7,9.1-.75,1-1.9,2.9-2.5,4C40.73,47.45,28,40.2,23.88,38.5c.1-.35.35-1.35.5-1.85s.35-1.6.4-1.95c4.95-1.9,20.9-9.15,28.15-13.2.2.9.6,3.2.9,4.25-4.75,2.2-17.8,7.3-24.25,8.8l-.1.35c3.65,0,12.35-.2,18.45-.2s15.2,0,20.7-.15a20.23,20.23,0,0,0-.55,2.05c-.15.55-.4,1.6-.5,2-5.45-.1-14.3-.2-20.55-.2s-14.75-.05-18.4-.1Z"/></svg>