<svg id="Layer_1" data-name="Layer 1" xmlns="http://www.w3.org/2000/svg" viewBox="0 0 231.69 234.04"><defs><style>.cls-1{fill:#212121;}.cls-2{font-size:119px;fill:#fdffeb;font-family:SwearDisplay-Italic, Swear Display;font-style:italic;letter-spacing:-0.02em;}.cls-3{fill:none;stroke:#fdffeb;stroke-miterlimit:10;}</style></defs><ellipse class="cls-1" cx="113.98" cy="119" rx="100" ry="102.5"/><text class="cls-2" transform="matrix(0.7, -0.71, 0.71, 0.7, 113.99, 180.85)">↓</text><path class="cls-3" d="M46.8,70.4S66.62,43.8,92,41.36c25.07-2.4,50.19-3.92,64.94,7.67s37.51,42.35,37.51,62.52S190,162.2,165,184.55c-26.13,23.38-82,22-105.12-2.5C34.92,155.65,18.17,110.34,46.8,70.4Z"/><path class="cls-3" d="M82.89,43.27s29.26-15.28,64.55.48"/><path class="cls-3" d="M70,49.33s27.42-12.88,54.63-9.18"/><path class="cls-3" d="M57.69,179.71c-.67-1.07-20.42-14.11-24.33-47.79"/><path class="cls-3" d="M31.77,113.16S25.44,143.67,45.2,162.5"/></svg>