<svg id="Layer_1" data-name="Layer 1" xmlns="http://www.w3.org/2000/svg" viewBox="0 0 229.84 246"><defs><style>.cls-1{fill:#212121;}.cls-2{fill:none;stroke:#212121;stroke-miterlimit:10;}</style></defs><path class="cls-1" d="M50.84,126.8l-2.18,8,0,.1,7-4,1.35,3.34-7.76,2.11,0,.1,7.09,4-2.38,3-5.72-5.68-.09,0-.4,8.2-3.5-.63,2.23-7.87,0-.1-6.88,3.87L38.29,138l7.59-2,0-.1-7-4.12,2.3-2.92,5.8,5.59.09,0,.22-8.08Z"/><path class="cls-1" d="M166.55,88.23l-2.18,8,0,.1,7-4,1.35,3.33L165,97.81l0,.1,7.09,4-2.37,3L164,99.23l-.1,0-.39,8.2-3.51-.63L162.28,99l0-.1-6.88,3.87L154,99.41l7.59-2,0-.1-7-4.11,2.3-2.93,5.8,5.59.1,0,.21-8.08Z"/><path class="cls-1" d="M81.78,136.58a7.68,7.68,0,0,0,4.69-4.9l1-2.64.66-.2c-.11,2.35-.15,4.8-.12,6.7l-12.44,3.83-.07-.78.86-.52c.64-.36.61-.9.28-6.72-.39-7.49-.58-7.65-1.22-7.59l-.78.1,0-.79,12.61-3.88c.1,1.68.28,3.89.55,5.94l-.65.2-1.05-1.42c-1.39-1.84-2.63-2.51-5.11-1.94,0,.82,0,2.35.25,6.82a4,4,0,0,0,2.56-3.2l.32-1.21.43-.13c0,1.91.27,6,.49,7.82l-.45.14-.42-1c-.65-1.54-1.45-1.9-2.88-1.63v.09C81.5,134.14,81.64,135.76,81.78,136.58Z"/><path class="cls-1" d="M102.54,131.46c-2.09-2-7.77-8-10.07-10.15a8,8,0,0,0-.8-.7c.73,9.46,3,10.71,5.5,10.68l2.15,0,.07.78L90,134.93l0-.79.47-.34c1.07-.77,1.17-1.8.51-13.74a2.33,2.33,0,0,0-1.41-.53l-.74-.06,0-.76L96,116.48a48.16,48.16,0,0,0,6.13,7c-.54-6.72-1.52-6.92-2.56-6.9h-1.3l-.08-.78L104.1,114l.08.78-.5.35c-.71.49-1.17,1.44-.66,10.74.09,1.8.29,4.51.4,5.33Z"/><path class="cls-1" d="M105.35,132c2.16-.55,2.1-.76,1.6-9.73-.4-7.6-.52-7.89-1.16-7.83l-.75.09-.05-.79,7.66-2.36,0,.79-.77.38c-.68.31-.71,1.12-.41,6.32.1,1.85.3,3.56.39,5,.17,3.54-1.89,6.91-6.44,9Z"/><path class="cls-1" d="M121.79,125.43c-3.18,1-5.93-.78-7.11-4.59-1.38-4.5.55-10.55,5.78-12.16,3.29-1,6.07.4,7.21,4.09C129.08,117.37,126.39,124,121.79,125.43Zm-6.39-5.12c.31,1,1.57,1.23,4.76.25,4.93-1.51,7.45-5.2,6.78-7.37-.26-.83-1.49-1-4.38-.09C117.41,114.68,114.72,118.08,115.4,120.31Z"/><path class="cls-1" d="M131.45,122.18l0-.79,1.3-.7c1-.57,1-1.06.71-6.34-.69-.81-1.35-1.6-1.89-2.21-2.49-2.94-3.53-4.09-4.32-4.31l-.29,0,0-.8L135,104.5l0,.79-.36.17c-.7.32-1.06.68-.9,1.19.32,1.06,3.06,4.37,4,5.54.72-2.27,1.25-5.48.9-6.62-.22-.7-.76-.87-1.8-.74l-.57.06,0-.79,7.4-2.27.05.78-.23.16c-.74.47-2.19,3.38-5.39,10.09.3,5.83.56,5.86,1.47,5.78l1.31-.16.08.78Z"/><path class="cls-1" d="M69.49,170.07l-10,3.06-.07-.78,1.33-.71c1.26-.66,1.24-1.18.91-6.64s-.41-7.29-.55-8.11c-1,.71-1.44,1.72-2.3,4.14l-1.31,4-.6.18c.06-2.75,0-5.54-.16-7.86l13.5-4.15c.13,2.31.32,5.07.66,7.71l-.58.17L68.68,158c-1-1.82-1.61-2.47-2.65-2.59,0,.76,0,2.09.25,6.12.4,7.85.63,8,1.87,7.86l1.27-.11Z"/><path class="cls-1" d="M82.27,157.81l-1,.3c-.66.21-1.72.62-2.78,1,.39,6.57.51,6.89,1.13,6.84l.78-.07,0,.78-7.66,2.36-.07-.78.8-.44c.64-.36.64-.91.33-7-.38-7.08-.49-7.44-1.14-7.37l-.77.09,0-.78,7.66-2.36,0,.79-.77.37c-.63.31-.7.88-.39,6.65,1.11-.26,2.19-.53,2.79-.72l1-.3c-.32-6.08-.45-6.4-1.07-6.34l-.77.1,0-.79L88,147.77l0,.79-.77.38c-.65.31-.69.9-.36,7.11.4,7,.51,7.39,1.15,7.33l.78-.07.05.79-7.66,2.35-.07-.78.81-.44c.63-.36.63-.91.32-7Z"/><path class="cls-1" d="M96,161a7.7,7.7,0,0,0,4.69-4.91l1-2.63.66-.2c-.11,2.35-.16,4.8-.13,6.7l-12.43,3.83-.07-.78.86-.52c.64-.36.61-.9.28-6.72-.39-7.49-.58-7.66-1.22-7.59l-.78.09,0-.78,12.62-3.88c.1,1.68.28,3.89.55,5.94l-.66.2-1-1.42c-1.4-1.84-2.63-2.51-5.11-1.94,0,.82,0,2.35.24,6.81A3.91,3.91,0,0,0,98,150l.32-1.21.43-.13c0,1.91.28,6,.5,7.82l-.46.14-.42-1c-.64-1.54-1.44-1.9-2.88-1.63v.08C95.76,158.58,95.9,160.2,96,161Z"/><path class="cls-1" d="M120.86,154.26l-10,3.07-.08-.78,1.33-.72c1.27-.66,1.24-1.18.92-6.64s-.42-7.29-.56-8.1c-1,.7-1.43,1.71-2.29,4.13l-1.31,4-.61.19c.07-2.76,0-5.55-.15-7.87l13.5-4.15c.13,2.31.32,5.08.66,7.71l-.58.18-1.68-3.11c-1-1.81-1.62-2.46-2.65-2.59,0,.76,0,2.09.25,6.12.39,7.85.62,8,1.87,7.87l1.26-.12Z"/><path class="cls-1" d="M131.27,151.33c-3.18,1-5.93-.77-7.11-4.58-1.38-4.5.55-10.55,5.78-12.16,3.29-1,6.07.4,7.21,4.09C138.56,143.28,135.87,149.92,131.27,151.33Zm-6.38-5.11c.3,1,1.56,1.23,4.75.25,4.93-1.51,7.45-5.2,6.78-7.37-.26-.83-1.49-1-4.38-.09C126.89,140.59,124.2,144,124.89,146.22Z"/><path class="cls-1" d="M152.78,138.13c.14,3.61-1.82,7.15-5.23,8.2s-6,.1-6.82-2.58a12.92,12.92,0,0,1-.44-3.49c-.38-7.08-.52-7.37-1.19-7.3l-.64.09-.05-.79,7.73-2.38.08.78-.93.48c-.77.4-.66,1.12-.29,7.89a10.05,10.05,0,0,0,.38,2.4c.69,2.23,2.07,2.66,4.16,2,1.7-.52,2-1.12,1.79-4-.44-8.08-1.18-9.34-2.75-9.3h-.77l0-.79,5.79-1.78.07.78-.59.42c-.7.52-.77,1.1-.5,6.47C152.61,136.52,152.73,137.35,152.78,138.13Z"/><path class="cls-1" d="M162.7,140.25l1.54-.14,0,.79-8.92,2.75-.05-.79.73-.42c.73-.44.76-.95.44-7.13-.37-7-.49-7.32-1.27-7.28l-.67.07,0-.79,8.57-2.64c4.17-1.28,5.41-.23,5.9,1.37a5.22,5.22,0,0,1-2.71,6.56c2,3,3.1,4.41,3.85,4.87a7.75,7.75,0,0,0,1.29.43l.08.78-5.94,1.83c-.77-.95-1.65-3.12-3.18-7.35-.42,0-.86-.1-1.26-.16l0,.24C161.5,140,161.74,140.36,162.7,140.25Zm1.64-13c-.37-1.21-1.78-1.55-3.17-1.12l-.25.07a54.28,54.28,0,0,0,.16,6.29,9.84,9.84,0,0,0,1.23-.32C164.13,131.6,164.85,128.89,164.34,127.24Z"/><path class="cls-1" d="M175.28,130.49l-.74.2c-1-3-2.43-6.53-3.27-8.62l6.25-1.84C177,122.23,175.79,127.37,175.28,130.49Zm-2.79,5.42c-.64-2.07.48-3.47,2.38-4,1.62-.5,2.78,0,3.27,1.62.63,2.05-.5,3.51-2.42,4.1A2.33,2.33,0,0,1,172.49,135.91Z"/><ellipse class="cls-2" cx="113.98" cy="131" rx="100" ry="102.5"/></svg>