<svg id="Layer_1" data-name="Layer 1" xmlns="http://www.w3.org/2000/svg" viewBox="0 0 361.25 142.55"><defs><style>.cls-1{fill:#212121;}.cls-2,.cls-3{fill:none;stroke:#212121;stroke-miterlimit:10;}.cls-2{stroke-width:0.5px;}.cls-3{stroke-width:0.25px;}</style></defs><path class="cls-1" d="M42.31,75.46l2.16-5.33h1.08l-2.67,13c-4.9,4.32-10.15,6.84-16.42,6.84-10,0-15.33-6.4-15.33-16.92,0-13.53,9.21-27.72,26.93-27.72a24.89,24.89,0,0,1,13,3.24L47,63.87H45.91l.5-5.11c.5-4.4-.86-7.06-8.14-7.06-15.41,0-25.49,11.74-25.49,23.11,0,4.4,5.47,7.71,15.48,7.71C37.19,82.52,40.36,80,42.31,75.46Z"/><path class="cls-1" d="M55.19,61.28c-2.09,0-3.89.79-6.55,6.62l-.8-.36c3.46-9.79,5.55-13.83,8.65-13.83,2.23,0,4.24,2.89,4.24,6.27,0,4.61-4.89,14.33-4.89,18.72,0,2.23,1,3.39,2.37,3.39,1.66,0,2.81-1.44,5.33-6.77l.79.36c-3.67,11.16-6.26,14.25-9.57,14.25-2.95,0-5.19-3.09-5.19-6.48,0-6.62,8.64-15.69,8.72-19.65C58.29,62.36,57.21,61.28,55.19,61.28Zm3.24-16.64c0-3.24,2-4.75,5.18-4.75a3.26,3.26,0,0,1,3.6,3.6c0,3.39-2,5-5.18,5C59.87,48.53,58.43,47.23,58.43,44.64Z"/><path class="cls-1" d="M85.07,83.31c0-6.41,8.86-15.63,8.86-19.37,0-1.37-1.3-2.52-3.75-2.52-5,0-10.08,5-17.85,27.79H64.4c2.89-8.71,10.73-21.45,10.73-25,0-1.73-1.08-3-3.52-3-2.16,0-4,.79-6.7,6.62l-.79-.36c3.45-9.79,5.54-13.83,8.64-13.83,2.3,0,4.1,3.39,4.1,9.73,0,3-1.73,11-3,17l.57.22C81.25,61.2,85.79,53.79,90.9,53.79c3.32,0,5.62,3.17,5.62,6.41,0,4.1-5.11,14.4-5.11,18.79,0,2.23.93,3.31,2.3,3.31,1.59,0,2.88-1.29,5.47-7l.8.36c-3.68,11.16-6.27,14.25-9.8,14.25C87.23,89.93,85.07,86.77,85.07,83.31Z"/><path class="cls-1" d="M124.45,64.08l-.72-.21C114.23,82.23,109.26,90,105.37,90c-2.88,0-5.54-3.82-5.54-11.16,0-12.39,9.14-24.63,27.22-24.41a25.71,25.71,0,0,0,1.44-6.7c0-1.51-1.16-2.38-3.24-2.38a15.47,15.47,0,0,0-6.77,2l-.29-.8c2.88-3.88,6-6.26,8.42-6.26,2,0,3.75,1.94,3.75,4.46a41.48,41.48,0,0,1-2,10.37c-2.09,6.77-5.47,19.09-5.47,24,0,2.38,1.15,3.75,2.66,3.75s2.6-1.44,5.33-7.2l.72.35c-3.6,11-5.83,14-8.93,14-2.3,0-4.1-3.09-4.1-6.76S122.15,70.28,124.45,64.08Zm0-3.67c-16.2,3-23.18,12.24-23.18,18.44,0,2.16,1.94,3.38,4.46,3.38C111.78,82.23,117.11,75.82,124.45,60.41Z"/><path class="cls-1" d="M126.18,100.74l1.44-6.92a26.29,26.29,0,0,0,8,1.51c4,0,7.85-1.22,10.66-6.84l-7.49-2.08c.43-8.07,4-16.71,3-22.18a3.33,3.33,0,0,0-3.67-3c-2.3,0-3.89.72-6.84,6.4l-.79-.36c3.74-10.08,5.69-13.61,8.21-13.61,2.16,0,3.67,3.68,4.75,9.73a160.71,160.71,0,0,1,3.1,22.61l.79.14a75.41,75.41,0,0,0,6.77-32.11,75.29,75.29,0,0,1,8.06.57c-3,8.43-7.34,18-10.29,24.63C145.26,94.11,140.36,102,133.52,102A28.35,28.35,0,0,1,126.18,100.74Z"/><path class="cls-1" d="M197.75,85.4c1.73,3.53,3.17,4.75,4.82,4.75,1.87,0,3.53-1.37,5.91-8.35l.79.21c-2.88,11.74-5.11,15.12-7.85,15.12S197.6,92,197,85.9a21.24,21.24,0,0,1-12.17,4c-8.5,0-14.69-7.2-14.69-17.56,0-12.89,10.22-26.94,24.62-26.94,8.79,0,15,6.77,15,17C209.7,70.92,204.88,80.07,197.75,85.4Zm-26-12.17c0,5.54,4.11,9.14,12.46,9.14A25.12,25.12,0,0,0,195.08,80a33,33,0,0,0-6.55-10.08c1.15-.08,4.32-.22,5.91-.44a40.87,40.87,0,0,0,1.44,10.16c7.63-3.89,12.24-11.38,12.24-18.22,0-5.33-4.18-8.79-12-8.79C181.48,52.63,171.75,63.29,171.75,73.23Z"/><path class="cls-1" d="M235.26,54.29l6.84.36c-1.8,5.33-5.47,18.65-5.47,24,0,2.59,1.08,3.67,2.66,3.67,1.37,0,2.81-1.22,5.4-6.91l.72.36c-3.67,11.09-5.83,14.18-9.07,14.18-2.16,0-4.18-2.59-4.18-6.55s4-14.47,6.34-20.59l-.5-.22C228.2,81,223.16,89.93,218.48,89.93a6.49,6.49,0,0,1-6.55-6.62c0-6.34,8.71-14.62,8.78-19.23,0-1.58-1.15-2.8-3.24-2.8s-3.74.64-6.62,6.62l-.79-.36c3.45-9.79,5.54-13.83,8.64-13.83,2.16,0,4.32,3,4.32,6.41,0,6.27-5.26,14.91-5.33,19.16-.07,1.94,1.58,2.81,3.31,2.81C229.14,82.09,235.19,66.89,235.26,54.29Z"/><path class="cls-1" d="M263.41,83.17c0-3.75,3.89-13.61,6.12-19.73l-.58-.22C259.23,82,254.19,90,250.23,90c-2.95,0-5.61-3.82-5.61-11.09,0-12.68,9.43-25.28,29-24.92-2,5.69-5.91,20-5.91,25.06,0,2.38,1.15,3.75,2.67,3.75s2.59-1.44,5.32-7.2l.8.35c-3.68,10.88-6,14-9,14C265.21,89.93,263.41,86.84,263.41,83.17Zm6.34-22.83c-16.56,2.88-23.69,12.24-23.69,18.51,0,2.3,1.8,3.38,4.46,3.38C254.12,82.23,260.67,77.26,269.75,60.34Z"/><path class="cls-1" d="M278,77.12c0,3.81,3.24,5.76,7.13,5.76,5.83,0,12.1-3.75,14.26-9.15l.72.51c-2.3,8.28-7.85,15.69-14.33,15.69-5.54,0-9.5-5-9.5-14.47,0-10.87,7.05-21.67,18.5-21.67a23.92,23.92,0,0,1,8.64,1.58c-1.15,4.39-2.09,7.92-3.17,12.53l-1.08-.14c.8-4.68.72-7.64-3.38-7.64C287.38,60.12,278,67,278,77.12Z"/><path class="cls-1" d="M310.78,45.79a13,13,0,0,0-5.9,2l-.5-.65c2.73-4,5.47-6.84,7.63-6.84,1.87,0,3.67,2,3.67,4.82,0,7.78-4.75,23.91-7.2,35.36l.65.22c6.55-19.66,11.3-26.94,16.34-26.94,3.32,0,5.55,3.25,5.55,6.49,0,4.1-5,14.4-5,18.79,0,2.23.93,3.31,2.23,3.31,1.66,0,2.88-1.29,5.47-6.84l.79.36c-3.6,11-6.26,14.11-9.72,14.11-2.95,0-5.11-3.16-5.11-6.62,0-6.41,8.86-15.63,8.86-19.37,0-1.37-1.3-2.52-3.82-2.52-5,0-9.94,5-17.71,27.79h-7.92C302,77.55,314,53.93,314,48,314,46.73,312.66,45.79,310.78,45.79Z"/><path class="cls-1" d="M288,78a14.38,14.38,0,0,0,.09-4.22A19.13,19.13,0,0,0,283.68,75l-.09-.29a22.91,22.91,0,0,0,4-3A12.89,12.89,0,0,0,285,68.91l.25-.31A16.46,16.46,0,0,0,289.06,70a19.32,19.32,0,0,0,2-4.3h.36a16.47,16.47,0,0,0-.12,4.2,18.77,18.77,0,0,0,4.42-1.29l.12.33a23,23,0,0,0-4,3,14.9,14.9,0,0,0,2.57,2.83l-.24.29a17.14,17.14,0,0,0-3.74-1.34,18.52,18.52,0,0,0-2,4.29Z"/><path class="cls-2" d="M47.51,87.91S39.06,70.51,90.8,60.28s57.55-12.79,87.64-18.41S283,28.56,299.88,33.68,332.61,34.7,340,48s-1.06,19.44-1.06,19.44-16.27,18-21.11,22.51-2.16,5-9.51,12.27-13.2,6.65-23.23,10.24-107.7,16.37-107.7,16.37-53.86,4.09-81.31-3.07S56,111.44,47.51,87.91Z"/><path class="cls-3" d="M285.48,32.12s27.09-1.66,45,7.54"/><path class="cls-3" d="M288.94,32.29S304.48,31,324.48,38"/><path class="cls-3" d="M297.48,33s28,3,31,6"/><path class="cls-3" d="M68.69,115.43s33.36,14.74,51.58,13.66"/><path class="cls-3" d="M72.78,117.85s15.93,12.32,45.32,11.24"/></svg>