<svg id="Layer_1" data-name="Layer 1" xmlns="http://www.w3.org/2000/svg" viewBox="0 0 95.25 57.55"><defs><style>.cls-1{fill:#212121;}</style></defs><path class="cls-1" d="M27.75,48.1a70.47,70.47,0,0,0,1.29-12,97.71,97.71,0,0,0-12.45,4.46l-.22-.65A82.71,82.71,0,0,0,28,32.26a66.25,66.25,0,0,0-7.84-7.34l.5-.72A70.7,70.7,0,0,0,30.77,29,90.36,90.36,0,0,0,35.6,16.71h.72a69.85,69.85,0,0,0-1.23,12,91.53,91.53,0,0,0,12.32-4.46l.28.65A85.69,85.69,0,0,0,36.1,32.55,56.74,56.74,0,0,0,44,39.89l-.5.65a72.72,72.72,0,0,0-10.08-4.68A75.21,75.21,0,0,0,28.54,48.1Z"/><path class="cls-1" d="M56.55,48.1a70.47,70.47,0,0,0,1.29-12,97.71,97.71,0,0,0-12.45,4.46l-.22-.65a82.71,82.71,0,0,0,11.59-7.63,66.25,66.25,0,0,0-7.84-7.34l.5-.72A70.7,70.7,0,0,0,59.57,29,90.36,90.36,0,0,0,64.4,16.71h.72a69.85,69.85,0,0,0-1.23,12,91.53,91.53,0,0,0,12.32-4.46l.28.65A85.69,85.69,0,0,0,64.9,32.55a56.74,56.74,0,0,0,7.85,7.34l-.5.65a73.41,73.41,0,0,0-10.09-4.68A76,76,0,0,0,57.34,48.1Z"/></svg>