<svg id="Layer_1" data-name="Layer 1" xmlns="http://www.w3.org/2000/svg" viewBox="0 0 195.25 91.55"><defs><style>.cls-1{fill:#212121;}.cls-2,.cls-3,.cls-4{fill:none;stroke:#212121;stroke-miterlimit:10;}.cls-2{stroke-width:0.75px;}.cls-3{stroke-width:0.25px;}.cls-4{stroke-width:0.5px;}</style></defs><path class="cls-1" d="M34.18,56.74H22.63l.14-.62,1.77-.28c1.47-.26,1.61-.62,3.88-9.62,2.45-9.86,2.41-10,.76-10.25l-1.48-.22.18-.61H38.47c5,0,6.11,1.8,6.11,4.39a8.32,8.32,0,0,1-8.06,8.1,10.63,10.63,0,0,1-4.64-1.12c-2.13,8.64-2,9-.69,9.22l3.1.39ZM32,46a26.71,26.71,0,0,0,3.49.18c3,0,5.4-2.63,5.4-6.59,0-2.48-.79-3.78-3.85-3.78a10.86,10.86,0,0,0-2.27.22c-.39.83-1,2.7-2.7,9.61Z"/><path class="cls-1" d="M48,35a6.39,6.39,0,0,0-2.91,1l-.29-.36c1.33-2,2.73-3.42,3.81-3.42a2.18,2.18,0,0,1,1.84,2.41c0,3.38-3.6,13.46-3.6,16.52,0,1.41.58,2,1.33,2s1.37-.68,2.63-3.31l.36.18c-1.8,5.51-3.13,7.06-4.75,7.06s-2.7-1.59-2.7-3.6c0-4.11,5.83-14.58,5.83-17.39C49.59,35.5,49,35,48,35Z"/><path class="cls-1" d="M60.5,53.71c0-1.87,1.94-6.8,3.06-9.86l-.29-.11c-4.86,9.4-7.38,13.39-9.36,13.39-1.48,0-2.81-1.91-2.81-5.54,0-6.34,4.72-12.64,14.51-12.46-1,2.85-3,10-3,12.53,0,1.19.57,1.87,1.33,1.87s1.3-.72,2.66-3.6l.4.18c-1.84,5.44-3,7-4.5,7C61.4,57.1,60.5,55.55,60.5,53.71ZM63.66,42.3c-8.27,1.44-11.84,6.12-11.84,9.25,0,1.15.9,1.69,2.23,1.69C55.85,53.24,59.13,50.76,63.66,42.3Z"/><path class="cls-1" d="M64.31,62.49,65,59a13.24,13.24,0,0,0,4,.75,5.45,5.45,0,0,0,5.33-3.41l-3.75-1.05c.22-4,2-8.35,1.52-11.08a1.68,1.68,0,0,0-1.84-1.48c-1.15,0-1.94.36-3.42,3.2l-.4-.18c1.88-5,2.85-6.8,4.11-6.8,1.08,0,1.83,1.84,2.37,4.86a79.13,79.13,0,0,1,1.55,11.3l.4.07a37.67,37.67,0,0,0,3.38-16,39,39,0,0,1,4,.29c-1.47,4.21-3.67,9-5.15,12.31C73.85,59.18,71.41,63.11,68,63.11A14.09,14.09,0,0,1,64.31,62.49Z"/><path class="cls-1" d="M78.5,62.67l.5-3.42a38.08,38.08,0,0,0,7.27.87c3.13,0,3.64-.61,4.29-4.28a74.55,74.55,0,0,1,3.13-12l-.36-.14c-4.75,9.07-7.85,12.81-9.83,12.81-1.44,0-2.77-1.83-2.77-5.29C80.73,45.14,86,39,95.67,39.13c-.51,3.39-1.8,9.87-2.59,13.57C91.64,59.4,88,63.07,82,63.07A17.14,17.14,0,0,1,78.5,62.67ZM93.72,42.3c-8.2,1.41-12.23,5.91-12.23,8.93,0,1.11,1,1.73,2.23,1.73C85.45,53,89.22,50.58,93.72,42.3Z"/><path class="cls-1" d="M108.27,43.6c-4-.33-5,1.9-8.68,13.14H95.42c1.44-4.36,5.36-10.73,5.36-12.46,0-.9-.54-1.51-1.76-1.51s-2,.4-3.35,3.31l-.4-.18C97,41,98.05,39,99.59,39c1.15,0,2,1.69,2,4.86,0,1.8-1.12,6.48-1.8,9.83l.29.07c3.49-11.3,5.14-14.65,8.64-14.69Z"/><path class="cls-1" d="M120.76,46.22c0,5.37-3.85,10.88-8.57,10.88-2.8,0-5-2.52-5-7.28C107.19,44.5,111,39,115.76,39,118.56,39,120.76,41.47,120.76,46.22Zm-.79-.93c0-1.84-1.69-2.63-4-2.63a8.27,8.27,0,0,0-8,8.06c0,1.91,1.66,2.78,3.89,2.78A8.27,8.27,0,0,0,120,45.29Z"/><path class="cls-1" d="M133.36,39.28l3.42.18c-.9,2.66-2.74,9.32-2.74,12,0,1.3.54,1.84,1.34,1.84s1.4-.61,2.7-3.46l.36.18c-1.84,5.55-2.92,7.1-4.54,7.1-1.08,0-2.09-1.3-2.09-3.28s2-7.24,3.17-10.29l-.25-.11c-4.9,9.21-7.42,13.68-9.76,13.68a3.25,3.25,0,0,1-3.27-3.32c0-3.16,4.35-7.3,4.39-9.61a1.43,1.43,0,0,0-1.62-1.4c-1.08,0-1.87.32-3.31,3.31l-.4-.18C122.49,41,123.53,39,125.08,39c1.08,0,2.16,1.47,2.16,3.2,0,3.13-2.63,7.45-2.66,9.58,0,1,.79,1.4,1.65,1.4C130.3,53.17,133.32,45.58,133.36,39.28Z"/><path class="cls-1" d="M148.16,53.78c0-3.2,4.42-7.81,4.42-9.68,0-.68-.64-1.26-1.87-1.26-2.48,0-5,2.48-8.93,13.9h-3.95c1.44-4.36,5.36-10.73,5.36-12.49,0-.87-.54-1.48-1.77-1.48-1.07,0-2,.4-3.34,3.31l-.4-.18C139.41,41,140.45,39,142,39c1.15,0,2.05,1.69,2.05,4.86a63.67,63.67,0,0,1-1.51,8.49l.29.11c3.42-9.72,5.69-13.42,8.24-13.42a3,3,0,0,1,2.81,3.2c0,2.05-2.56,7.2-2.56,9.39,0,1.12.47,1.66,1.16,1.66s1.44-.65,2.73-3.49l.4.18c-1.84,5.58-3.13,7.13-4.9,7.13C149.24,57.1,148.16,55.51,148.16,53.78Z"/><path class="cls-1" d="M167.85,44.17l-.36-.11c-4.75,9.18-7.24,13.07-9.18,13.07-1.44,0-2.77-1.91-2.77-5.58,0-6.19,4.57-12.31,13.6-12.2a12.41,12.41,0,0,0,.72-3.35c0-.75-.57-1.19-1.62-1.19a7.77,7.77,0,0,0-3.38,1l-.14-.4c1.44-1.94,3-3.13,4.21-3.13a2.1,2.1,0,0,1,1.87,2.23,20.71,20.71,0,0,1-1,5.18c-1,3.39-2.73,9.54-2.73,12,0,1.19.57,1.87,1.33,1.87s1.29-.72,2.66-3.6l.36.18c-1.8,5.47-2.92,7-4.46,7-1.15,0-2-1.55-2-3.39S166.7,47.27,167.85,44.17Zm0-1.83c-8.1,1.47-11.59,6.12-11.59,9.21,0,1.08,1,1.69,2.23,1.69C161.51,53.24,164.18,50,167.85,42.34Z"/><path class="cls-1" d="M145.7,16.57a8.35,8.35,0,0,0,.05-2.46,11.1,11.1,0,0,0-2.59.74l-.06-.17A13.07,13.07,0,0,0,145.43,13,7.68,7.68,0,0,0,144,11.28l.14-.18a10.06,10.06,0,0,0,2.21.81,11.26,11.26,0,0,0,1.17-2.51h.22a8.93,8.93,0,0,0-.07,2.45,11.32,11.32,0,0,0,2.57-.75l.07.19A13.17,13.17,0,0,0,147.92,13a9,9,0,0,0,1.5,1.65l-.14.17a10.06,10.06,0,0,0-2.18-.78,10.58,10.58,0,0,0-1.19,2.5Z"/><path class="cls-1" d="M112.7,51.57a8.35,8.35,0,0,0,0-2.46,11.1,11.1,0,0,0-2.59.74l-.06-.17A13.07,13.07,0,0,0,112.43,48,7.68,7.68,0,0,0,111,46.28l.14-.18a10.06,10.06,0,0,0,2.21.81,11.26,11.26,0,0,0,1.17-2.51h.22a8.93,8.93,0,0,0-.07,2.45,11.32,11.32,0,0,0,2.57-.75l.07.19A13.17,13.17,0,0,0,114.92,48a9,9,0,0,0,1.5,1.65l-.14.17a10.06,10.06,0,0,0-2.18-.78,10.58,10.58,0,0,0-1.19,2.5Z"/><path class="cls-2" d="M176.71,44.23c3.58-2.49,27.27-25.16-24.41-30.66-45.91-4.89-94.24,19.53-102,21s-36.52,6.3-39.84,20.63C8.27,64.8,20.14,71.29,33.87,75.79s58,6.11,67.54,2c15.87-6.8,41.05-9.1,54-13.29,4.64-1.5,13.24-9.21,14.43-13.52C170.51,47.76,173.13,46.71,176.71,44.23Z"/><path class="cls-3" d="M21.22,70.48c1.44.89,20.29,8.08,25.49,7.94"/><path class="cls-4" d="M16.67,67.81s6.59,7.69,22.54,9.39"/><path class="cls-3" d="M19.13,69.43s17.38,10.32,27.15,8.85"/><path class="cls-4" d="M184.83,33c1.29-4.63-2.51-7.81-7.41-13.27"/><path class="cls-3" d="M173.19,17.9s11,5.89,11.46,9.05"/><path class="cls-3" d="M181.33,22.4s5.26,7.81,3.14,11.75"/></svg>