<svg id="Layer_1" data-name="Layer 1" xmlns="http://www.w3.org/2000/svg" viewBox="0 0 80.25 80.55"><defs><style>.cls-1{fill:#212121;}</style></defs><path class="cls-1" d="M56.78,41.07C51.23,39.52,40.67,34,37.07,32c.75-1,1.9-2.9,2.5-3.95,5,4.25,17.76,11.5,21.91,13.2-.1.35-.35,1.35-.5,1.85s-.35,1.6-.4,2c-4.95,1.9-20.91,9.15-28.16,13.2-.2-.9-.6-3.2-.9-4.25,4.75-2.2,17.81-7.3,24.26-8.8l.1-.35c-3.65,0-12.36.2-18.46.2s-15.2,0-20.7.15a20.23,20.23,0,0,0,.55-2.05c.15-.55.4-1.6.5-2,5.45.1,14.3.2,20.55.2s14.76,0,18.41.1Z"/></svg>