<svg id="Layer_1" data-name="Layer 1" xmlns="http://www.w3.org/2000/svg" viewBox="0 0 217.84 83"><defs><style>.cls-1{fill:#212121;}.cls-2,.cls-3,.cls-4{fill:none;stroke:#212121;stroke-miterlimit:10;}.cls-2{stroke-width:0.75px;}.cls-3{stroke-width:0.25px;}.cls-4{stroke-width:0.5px;}</style></defs><path class="cls-1" d="M35.57,27.68c-.72,2.63-1.15,4.68-1.84,8h-.61c.94-4.9,0-5.55-4.28-5.55C24.34,30.16,22,32,22,33.8c0,3,11.77,2.26,11.77,7.05,0,3.35-4.79,8.25-9.61,8.25a10.35,10.35,0,0,1-6.69-2.45,68.44,68.44,0,0,0,1.83-7.38h.61c-.79,6.23,2.09,7,7,7,3.56,0,5-1.19,5-3.45,0-3.64-10.54-4.54-10.54-9.11,0-3.38,3.06-6.88,8.74-6.88A17.77,17.77,0,0,1,35.57,27.68Z"/><path class="cls-1" d="M34.92,41.72c0-5.66,4.61-10.73,8.39-10.73A4.47,4.47,0,0,1,48,35c0,2.3-3.85,3.78-11.8,5a7.28,7.28,0,0,0-.51,2.6c0,2,2.16,2.88,3.78,2.88,2.7,0,6.48-2,7.67-4.83l.36.25C46,45.46,42.8,49.1,39.67,49.1,36.94,49.1,34.92,46.68,34.92,41.72Zm1.44-2.06c6.44-1.44,9.29-3,9.29-4.06,0-.69-.58-1.41-2-1.41C40.57,34.19,37.62,36.71,36.36,39.66Z"/><path class="cls-1" d="M52.38,27a6.46,6.46,0,0,0-2.92,1l-.28-.36c1.33-2,2.73-3.42,3.81-3.42a2.19,2.19,0,0,1,1.84,2.41c0,3.38-3.6,13.46-3.6,16.52,0,1.41.57,2,1.33,2s1.37-.68,2.63-3.31l.36.18c-1.8,5.51-3.13,7.06-4.75,7.06s-2.7-1.59-2.7-3.6c0-4.11,5.83-14.58,5.83-17.39C53.93,27.5,53.32,27,52.38,27Z"/><path class="cls-1" d="M55.58,41.72C55.58,36.06,60.19,31,64,31a4.48,4.48,0,0,1,4.72,4c0,2.3-3.85,3.78-11.81,5a7.49,7.49,0,0,0-.5,2.6c0,2,2.16,2.88,3.78,2.88,2.7,0,6.48-2,7.66-4.83l.36.25c-1.47,4.54-4.71,8.18-7.84,8.18C57.6,49.1,55.58,46.68,55.58,41.72ZM57,39.66c6.45-1.44,9.29-3,9.29-4.06,0-.69-.57-1.41-2-1.41C61.24,34.19,58.28,36.71,57,39.66Z"/><path class="cls-1" d="M69.66,42.69c0,1.91,1.62,2.88,3.56,2.88A7.93,7.93,0,0,0,80.35,41l.36.25c-1.15,4.14-3.92,7.85-7.16,7.85-2.77,0-4.75-2.49-4.75-7.24C68.8,36.42,72.32,31,78.05,31a12,12,0,0,1,4.32.79c-.58,2.19-1.05,4-1.59,6.26L80.24,38c.4-2.34.36-3.82-1.69-3.82C74.34,34.19,69.66,37.61,69.66,42.69Z"/><path class="cls-1" d="M87.84,27.43l.47,0c-.18.87-.58,2.27-1,3.89h5.15l-.76,3.53c-1.69-.11-3.49-.15-5.25-.18-.87,3.31-1.66,6.73-1.62,8.46,0,1.33.68,2,1.65,2s2.2-.72,3.71-3.86l.36.18c-1.8,5.83-3.82,7.64-5.54,7.64s-3-1.26-3-3.53c0-2.92,1.88-7.31,3.68-10.87H82.48v-.51C85,33,86.29,31.35,87.84,27.43Z"/><path class="cls-1" d="M91.3,41.72C91.3,36.06,95.9,31,99.68,31a4.48,4.48,0,0,1,4.72,4c0,2.3-3.85,3.78-11.81,5a7.49,7.49,0,0,0-.5,2.6c0,2,2.16,2.88,3.78,2.88,2.7,0,6.48-2,7.66-4.83l.36.25c-1.47,4.54-4.71,8.18-7.84,8.18C93.31,49.1,91.3,46.68,91.3,41.72Zm1.44-2.06c6.44-1.44,9.28-3,9.28-4.06,0-.69-.57-1.41-2-1.41C97,34.19,94,36.71,92.74,39.66Z"/><path class="cls-1" d="M116.78,36.17l-.36-.11c-4.75,9.18-7.23,13.07-9.18,13.07-1.44,0-2.77-1.91-2.77-5.58,0-6.19,4.57-12.31,13.61-12.2A12.82,12.82,0,0,0,118.8,28c0-.75-.58-1.19-1.62-1.19a7.77,7.77,0,0,0-3.39,1l-.14-.4c1.44-1.94,3-3.13,4.21-3.13a2.1,2.1,0,0,1,1.87,2.23,20.65,20.65,0,0,1-1,5.18c-1,3.39-2.74,9.54-2.74,12,0,1.19.58,1.87,1.33,1.87s1.3-.72,2.67-3.6l.36.18c-1.8,5.47-2.92,7-4.47,7-1.15,0-2-1.55-2-3.39S115.63,39.27,116.78,36.17Zm0-1.83c-8.1,1.47-11.59,6.12-11.59,9.21,0,1.08,1,1.69,2.23,1.69C110.45,45.24,113.11,42,116.78,34.34Z"/><path class="cls-1" d="M138.38,49.1c-1.47,0-2.59-2.85-3-6.81-.07.15-.18.33-.25.47-1.73,3.31-4.25,6.34-5.8,6.34-2,0-4.07-2.2-4.07-4.5,0-3,5-6.27,5-8.43,0-.75-.72-1.4-2.09-1.4s-2.52.5-3.2,3.53l-.36-.18c1-5.26,2.37-7.13,3.92-7.13,1.37,0,2.67,1.87,2.67,4.14,0,2.66-3,6.08-3,8.35a2.18,2.18,0,0,0,2.23,2.41c1.66,0,3.56-2,4.86-4.53a37.94,37.94,0,0,1,.58-10.19c.79.07,2.19.14,3.31.18a33,33,0,0,1-3.31,10c.61,2.81,1.83,4.68,3.27,4.61,1.87,0,3.06-1.66,3.67-4a29.3,29.3,0,0,0,.36-10.77c1.59.11,2.81.22,4.07.26C145.29,39.84,141.08,49.1,138.38,49.1Z"/><path class="cls-1" d="M159.91,38.22c0,5.37-3.85,10.88-8.57,10.88-2.81,0-5-2.52-5-7.28,0-5.32,3.81-10.83,8.57-10.83C157.71,31,159.91,33.47,159.91,38.22Zm-.79-.93c0-1.84-1.7-2.63-4-2.63a8.27,8.27,0,0,0-8,8.06c0,1.91,1.66,2.78,3.89,2.78A8.27,8.27,0,0,0,159.12,37.29Z"/><path class="cls-1" d="M172.9,35.6c-4-.33-5,1.9-8.67,13.14h-4.18c1.44-4.36,5.37-10.73,5.37-12.46,0-.9-.54-1.51-1.77-1.51s-2,.4-3.34,3.31l-.4-.18C161.64,33,162.68,31,164.23,31c1.15,0,2,1.69,2,4.86,0,1.8-1.12,6.48-1.8,9.83l.28.07c3.5-11.3,5.15-14.65,8.64-14.69Z"/><path class="cls-1" d="M178.38,40.78C183.56,40.42,187,37.5,187,36c0-.79-.76-1.44-2.38-1.44-3,0-6.23,2.73-9.9,14.15h-3.89c2.16-6.56,7.24-17.79,7.24-20.63,0-.61-.61-1.08-1.55-1.08a6.25,6.25,0,0,0-2.95,1l-.29-.32c1.37-2,2.74-3.42,3.82-3.42A2.11,2.11,0,0,1,179,26.53c0,3.52-2.16,12-3.49,17.81l.36.11c-.25.72-.68,2.27-1,3.42C178.23,35.42,181.8,31,185,31a3.28,3.28,0,0,1,3.28,3.35c0,1.94-3,7-7.2,7a7.64,7.64,0,0,1-2.27-.39c2.52,3.09,4.28,4.32,5.47,4.32.83,0,1.8-.58,3.31-3.75l.47.18c-1.76,5.8-3.17,7.35-4.86,7.35C181.15,49.1,179.85,45.57,178.38,40.78Z"/><path class="cls-1" d="M201.88,31.75a50.43,50.43,0,0,0-1.4,6.26h-.54c.54-3.13-.22-3.85-3.38-3.85-3.5,0-5.29,1.29-5.29,2.55,0,2.49,9.17,1.8,9.17,5.73,0,2.37-3.92,6.66-7.7,6.66a7.29,7.29,0,0,1-5-2.31,37.39,37.39,0,0,0,1.48-5.58h.54c-.58,4.75,1.33,5.22,5.36,5.22,2.45,0,3.42-.83,3.42-2.27,0-2.95-8.06-3.74-8.06-7.52,0-2.81,2.52-5.65,7.16-5.65A12.22,12.22,0,0,1,201.88,31.75Z"/><path class="cls-1" d="M40,76.57a8.35,8.35,0,0,0,0-2.46,11.1,11.1,0,0,0-2.59.74l0-.17A13.39,13.39,0,0,0,39.68,73a7.68,7.68,0,0,0-1.48-1.67l.14-.18a10.06,10.06,0,0,0,2.21.81,11.81,11.81,0,0,0,1.18-2.51h.21a8.93,8.93,0,0,0-.07,2.45,11.32,11.32,0,0,0,2.57-.75l.07.19A13.17,13.17,0,0,0,42.17,73a9,9,0,0,0,1.5,1.65l-.14.17a10.06,10.06,0,0,0-2.18-.78,10.58,10.58,0,0,0-1.19,2.5Z"/><path class="cls-1" d="M152,43.57a8.35,8.35,0,0,0,.05-2.46,11.1,11.1,0,0,0-2.59.74l0-.17A13.39,13.39,0,0,0,151.68,40a7.68,7.68,0,0,0-1.48-1.67l.14-.18a10.06,10.06,0,0,0,2.21.81,11.81,11.81,0,0,0,1.18-2.51h.21a8.93,8.93,0,0,0-.07,2.45,11.32,11.32,0,0,0,2.57-.75l.07.19A13.17,13.17,0,0,0,154.17,40a9,9,0,0,0,1.5,1.65l-.14.17a10.06,10.06,0,0,0-2.18-.78,10.58,10.58,0,0,0-1.19,2.5Z"/><path class="cls-2" d="M25.94,44.48c-4,2.46-30.42,25,26.92,30.82,51,5.19,104.76-18.9,113.35-20.36s40.59-6.06,44.37-20.36C213.1,25,200,18.46,184.74,13.87s-64.3-6.5-75-2.45C92.1,18.11,64.13,20.24,49.68,24.35c-5.15,1.47-14.75,9.12-16.09,13.42C32.86,41,29.93,42,25.94,44.48Z"/><path class="cls-3" d="M198.76,19.27c-1.61-.91-22.49-8.22-28.27-8.11"/><path class="cls-4" d="M203.79,22s-7.28-7.74-25-9.54"/><path class="cls-3" d="M201.06,20.33S181.83,9.89,171,11.3"/><path class="cls-4" d="M16.87,55.61c-1.46,4.62,2.74,7.83,8.15,13.32"/><path class="cls-3" d="M29.7,70.83S17.55,64.86,17,61.7"/><path class="cls-3" d="M20.68,66.28s-5.79-7.85-3.41-11.78"/></svg>